<?xml version="1.0" standalone="no"?>
<!DOCTYPE svg PUBLIC "-//W3C//DTD SVG 20010904//EN"
 "http://www.w3.org/TR/2001/REC-SVG-20010904/DTD/svg10.dtd">
<svg version="1.0" xmlns="http://www.w3.org/2000/svg"
 width="2697.000000pt" height="2087.000000pt" viewBox="0 0 2697.000000 2087.000000"
 preserveAspectRatio="xMidYMid meet">

<g transform="translate(0.000000,2087.000000) scale(0.100000,-0.100000)"
fill="#000000" stroke="none">
<path d="M2890 10435 l0 -5885 4030 0 4030 0 0 5885 0 5885 -4030 0 -4030 0 0
-5885z m5270 3595 l0 -1470 28 6 c64 15 235 75 289 103 261 133 437 360 505
654 28 121 31 423 5 562 -55 299 -164 514 -363 712 l-103 103 382 322 c210
178 390 329 400 337 21 17 47 1 161 -102 275 -247 508 -667 615 -1110 140
-578 86 -1259 -143 -1777 -207 -469 -586 -864 -1041 -1085 -322 -157 -617
-222 -1055 -232 -583 -14 -1024 68 -1429 263 -245 118 -370 205 -555 384 -347
337 -549 767 -611 1299 -20 168 -20 519 0 681 57 462 223 838 502 1140 336
363 803 585 1378 654 190 23 175 22 623 24 l412 2 0 -1470z m-905 -3510 c592
-40 1105 -206 1560 -504 654 -429 1099 -1142 1219 -1951 32 -213 36 -387 36
-1472 l0 -1093 -3200 0 -3200 0 0 1088 c0 1243 4 1343 71 1663 89 429 296 869
566 1204 94 116 303 324 418 415 323 255 725 450 1146 554 221 55 391 80 669
99 113 8 580 6 715 -3z"/>
<path d="M6935 14039 c-224 -33 -398 -151 -483 -330 -48 -101 -72 -200 -78
-334 -18 -339 150 -589 481 -720 71 -28 255 -77 333 -89 l42 -6 0 745 0 745
-117 -1 c-65 -1 -145 -5 -178 -10z"/>
<path d="M6400 8939 c-324 -26 -612 -97 -835 -204 -325 -157 -553 -421 -644
-746 -43 -156 -51 -246 -51 -601 l0 -338 2005 0 2005 0 0 293 c0 325 -11 467
-45 603 -151 594 -656 926 -1514 993 -156 13 -767 12 -921 0z"/>
<path d="M13960 11210 c-657 -48 -1141 -251 -1471 -619 -303 -339 -439 -752
-408 -1240 38 -603 307 -994 840 -1220 267 -113 582 -200 1274 -351 579 -127
797 -192 983 -296 189 -105 278 -282 252 -500 -12 -98 -24 -144 -60 -214 -77
-152 -216 -259 -428 -331 -303 -103 -854 -114 -1170 -23 -121 35 -274 112
-355 179 -146 121 -236 296 -282 545 -9 52 -19 101 -21 108 -3 9 -124 12 -565
12 l-562 0 6 -152 c22 -554 279 -1009 747 -1323 185 -124 474 -246 730 -309
314 -76 736 -110 1095 -87 651 42 1119 214 1481 545 386 353 569 828 526 1363
-51 633 -365 1026 -1007 1261 -174 63 -285 93 -876 232 -1043 246 -1182 288
-1338 406 -142 107 -203 282 -168 481 50 277 282 458 677 529 135 25 446 25
595 0 481 -79 762 -340 803 -747 l7 -74 568 -3 567 -2 0 67 c0 38 -7 116 -15
174 -64 485 -278 863 -636 1129 -329 244 -703 390 -1140 445 -153 19 -482 27
-649 15z m595 -45 c414 -46 750 -162 1064 -368 464 -305 686 -695 746 -1314
l6 -63 -534 0 -535 0 -6 23 c-3 12 -6 34 -6 48 0 51 -43 196 -80 269 -127 252
-336 395 -694 472 -89 19 -131 22 -356 22 -286 0 -377 -13 -552 -78 -320 -120
-479 -337 -465 -636 9 -212 101 -345 308 -447 153 -75 366 -134 1129 -313 762
-179 900 -217 1125 -317 492 -218 760 -571 825 -1088 18 -139 8 -442 -19 -566
-111 -516 -467 -941 -981 -1170 -364 -162 -758 -228 -1298 -216 -333 8 -530
31 -777 93 -237 60 -519 181 -695 299 -436 293 -678 699 -730 1224 -5 57 -10
121 -10 142 l0 39 535 0 535 0 0 -29 c0 -50 56 -254 93 -340 120 -277 361
-439 757 -509 122 -21 577 -24 720 -3 230 32 438 108 567 205 155 118 242 301
243 511 0 225 -103 377 -334 489 -206 101 -351 143 -941 272 -714 156 -961
224 -1244 341 -343 141 -562 338 -701 629 -147 305 -181 768 -84 1139 114 441
435 820 868 1026 264 125 540 192 911 222 121 10 494 5 610 -8z"/>
<path d="M21955 11150 c-307 -35 -542 -100 -795 -221 -571 -275 -997 -780
-1216 -1444 -123 -375 -176 -744 -176 -1235 0 -560 73 -985 239 -1400 131
-328 312 -599 554 -835 185 -180 337 -286 573 -401 586 -286 1452 -324 2061
-91 717 274 1239 930 1409 1770 14 71 26 130 26 133 0 2 -265 4 -589 4 l-589
0 -7 -32 c-17 -76 -90 -279 -135 -374 -158 -335 -394 -524 -750 -601 -105 -22
-420 -25 -515 -5 -295 64 -547 228 -733 477 -61 82 -159 268 -197 375 -165
462 -187 1233 -50 1775 147 586 477 964 933 1070 217 51 535 34 752 -40 328
-112 527 -335 664 -745 l45 -135 591 -3 591 -2 -6 72 c-33 364 -200 762 -460
1093 -72 92 -252 270 -340 337 -310 235 -683 379 -1145 443 -135 19 -613 28
-735 15z m685 -46 c455 -52 831 -190 1146 -421 116 -86 312 -283 401 -403 226
-305 376 -666 408 -982 l7 -68 -559 0 -559 0 -38 118 c-44 133 -116 288 -176
380 -196 295 -538 452 -985 452 -499 0 -879 -248 -1110 -725 -149 -307 -220
-652 -232 -1120 -13 -540 59 -948 228 -1275 249 -483 706 -738 1237 -691 532
47 848 318 1029 884 l48 147 550 -2 550 -3 -3 -34 c-2 -19 -17 -88 -33 -155
-90 -373 -253 -713 -476 -992 -80 -101 -278 -297 -368 -366 -229 -174 -497
-301 -786 -371 -214 -53 -310 -62 -634 -62 -322 0 -406 8 -645 61 -232 52
-495 157 -685 274 -382 234 -709 622 -891 1054 -171 406 -248 804 -261 1336
-18 773 134 1428 444 1918 106 168 313 409 453 528 384 327 829 500 1380 538
102 7 424 -5 560 -20z"/>
<path d="M17470 8290 l0 -2770 590 0 590 0 0 2770 0 2770 -590 0 -590 0 0
-2770z m1140 0 l0 -2730 -552 2 -553 3 -3 2715 c-1 1493 0 2721 3 2728 3 9
124 12 555 12 l550 0 0 -2730z"/>
</g>
</svg>
